<?xml version="1.0" encoding="UTF-8"?>
<svg width="512" height="512" viewBox="0 0 512 512" fill="none" xmlns="http://www.w3.org/2000/svg">
  <rect width="512" height="512" rx="256" fill="#FF9933"/>
  <path d="M256 64C149.961 64 64 149.961 64 256C64 362.039 149.961 448 256 448C362.039 448 448 362.039 448 256C448 149.961 362.039 64 256 64ZM347.2 347.2C321.6 372.8 288 384 256 384C224 384 190.4 372.8 164.8 347.2C139.2 321.6 128 288 128 256C128 224 139.2 190.4 164.8 164.8C190.4 139.2 224 128 256 128C288 128 321.6 139.2 347.2 164.8C372.8 190.4 384 224 384 256C384 288 372.8 321.6 347.2 347.2Z" fill="white"/>
  <path d="M256 192C220.8 192 192 220.8 192 256C192 291.2 220.8 320 256 320C291.2 320 320 291.2 320 256C320 220.8 291.2 192 256 192ZM256 288C238.4 288 224 273.6 224 256C224 238.4 238.4 224 256 224C273.6 224 288 238.4 288 256C288 273.6 273.6 288 256 288Z" fill="white"/>
  <path d="M256 160C203.2 160 160 203.2 160 256C160 308.8 203.2 352 256 352C308.8 352 352 308.8 352 256C352 203.2 308.8 160 256 160ZM256 320C220.8 320 192 291.2 192 256C192 220.8 220.8 192 256 192C291.2 192 320 220.8 320 256C320 291.2 291.2 320 256 320Z" fill="white"/>
</svg> 